<?xml version="1.0" standalone="no"?>
<!DOCTYPE svg PUBLIC "-//W3C//DTD SVG 20010904//EN"
 "http://www.w3.org/TR/2001/REC-SVG-20010904/DTD/svg10.dtd">
<svg version="1.0" xmlns="http://www.w3.org/2000/svg"
 width="1728.000000pt" height="1728.000000pt" viewBox="0 0 1728.000000 1728.000000"
 preserveAspectRatio="xMidYMid meet">
<metadata>
Created by potrace 1.14, written by Peter Selinger 2001-2017
</metadata>
<g transform="translate(0.000000,1728.000000) scale(0.100000,-0.100000)"
fill="#000000" stroke="none">
<path d="M10 12710 l0 -260 1680 0 1680 0 0 260 0 260 -1680 0 -1680 0 0 -260z"/>
<path d="M13980 12710 l0 -260 1650 0 1650 0 0 260 0 260 -1650 0 -1650 0 0
-260z"/>
<path d="M10 11400 l0 -260 3404 -2 3405 -3 -107 -67 c-810 -504 -1396 -1311
-1628 -2240 -76 -306 -106 -558 -106 -893 0 -256 8 -370 43 -580 248 -1509
1415 -2712 2919 -3009 235 -46 260 -48 765 -44 l480 4 153 32 c425 88 791 226
1142 429 621 361 1120 892 1439 1533 199 402 303 741 371 1220 36 253 29 708
-15 998 -169 1095 -787 2023 -1741 2609 l-69 43 3408 0 3407 0 0 245 0 245
-8635 0 -8635 0 0 -260z m9090 -294 c91 -13 221 -38 290 -54 1215 -294 2140
-1280 2364 -2522 72 -399 64 -874 -21 -1245 -137 -602 -421 -1110 -854 -1530
-474 -459 -1062 -753 -1720 -860 -370 -60 -653 -61 -1014 -4 -1147 181 -2123
1022 -2478 2134 -103 321 -147 609 -147 955 0 214 12 360 46 549 240 1359
1327 2398 2699 2581 214 28 218 28 455 25 164 -3 254 -10 380 -29z"/>
<path d="M8365 10435 c-463 -46 -928 -244 -1294 -550 -100 -84 -273 -260 -353
-360 -188 -235 -345 -536 -437 -837 -113 -367 -133 -819 -55 -1198 100 -486
326 -904 675 -1251 366 -364 841 -600 1362 -676 165 -24 531 -24 703 0 361 51
699 180 1003 381 713 473 1131 1274 1108 2125 -2 102 -12 236 -21 296 -77 496
-306 956 -656 1319 -415 430 -960 695 -1546 751 -184 18 -310 18 -489 0z
m1098 -726 c220 -110 412 -258 558 -429 226 -265 373 -566 446 -915 24 -118
27 -150 27 -355 1 -210 -1 -234 -28 -365 -149 -725 -656 -1275 -1366 -1480
-318 -92 -702 -95 -1020 -9 -275 75 -511 199 -732 383 -125 105 -203 188 -190
204 5 7 166 228 357 492 192 264 497 685 679 935 489 673 544 750 861 1188
160 220 293 401 298 401 4 1 53 -22 110 -50z"/>
</g>
</svg>
